<svg width="124" height="125" viewBox="0 0 124 125" fill="none" xmlns="http://www.w3.org/2000/svg">
<path d="M14.2083 38.5677C-1.26586 68.75 57.7891 102.786 62 102.786C66.6241 102.786 125.24 68.75 109.792 38.5677C102.997 26.9531 85.25 8.46355 62 38.5677C48.1016 18.2292 26.5308 16.6406 14.2083 38.5677V38.5677Z" stroke="white" stroke-linecap="round" stroke-linejoin="round"/>
<path d="M65.5582 60.7065V55.3261C65.5582 53.3532 63.957 51.7391 62 51.7391C60.0429 51.7391 58.4417 53.3532 58.4417 55.3261H54.8835C54.8835 51.3625 58.0681 48.1522 62 48.1522C65.9319 48.1522 69.1165 51.3625 69.1165 55.3261V60.7065H70.8956C71.8742 60.7065 72.6748 61.5136 72.6748 62.5V75.0543C72.6748 76.0407 71.8742 76.8478 70.8956 76.8478H53.1043C52.1258 76.8478 51.3252 76.0407 51.3252 75.0543V62.5C51.3252 61.5136 52.1258 60.7065 53.1043 60.7065H65.5582ZM63.7791 73.2609L63.1386 69.4049C64.046 68.9744 64.6687 68.0598 64.6687 66.9837C64.6687 65.4951 63.4767 64.2935 62 64.2935C60.5233 64.2935 59.3313 65.4951 59.3313 66.9837C59.3313 68.0598 59.954 68.9744 60.8613 69.4049L60.2208 73.2609H63.7791Z" fill="white"/>
</svg>
